# xmcd CD database file
#
# Track frame offsets:
#	183
#	12145
#	23513
#	34383
#	47233
#	62380
#	76080
#	88230
#	100328
#	113373
#	124963
#	138688
#	151228
#	164775
#	178398
#	194103
#	206860
#	221290
#	234445
#	249843
#	261540
#
# Disc length: 3674 seconds
#
# Revision: 0
# Processed by: cddbd v1.5.1PL0 Copyright (c) Steve Scherf et al.
# Submitted via: CDex 1.51
#
DISCID=2c0e5815
DTITLE=Sarah Vaughan - Jazz sessions 1944-1950
DYEAR=1994
DGENRE=Jazz
TTITLE0=Signing off
TTITLE1=Interlude
TTITLE2=No smoke blues
TTITLE3=East of the sun
TTITLE4=Lover man
TTITLE5=What more can a woman do ?
TTITLE6=I'd rather have a memory than a dream
TTITLE7=Mean to me
TTITLE8=All too soon
TTITLE9=I'm scared
TTITLE10=You go to my head
TTITLE11=I could make you love me
TTITLE12=It might as well be spring
TTITLE13=Ain't Misbehavin'
TTITLE14=Goodnight my love
TTITLE15=Can't get out of this mood
TTITLE16=It might as well be spring
TTITLE17=Mean to me
TTITLE18=Come rain or come shine
TTITLE19=Nice work if you can get it
TTITLE20=East of the sun
EXTD=YEAR: 1994
EXTT0=
EXTT1=
EXTT2=
EXTT3=
EXTT4=
EXTT5=
EXTT6=
EXTT7=
EXTT8=
EXTT9=
EXTT10=
EXTT11=
EXTT12=
EXTT13=
EXTT14=
EXTT15=
EXTT16=
EXTT17=
EXTT18=
EXTT19=
EXTT20=
PLAYORDER=
